<?xml version="1.0" encoding="UTF-8"?>
<svg xmlns="http://www.w3.org/2000/svg" id="Warstwa_1" data-name="Warstwa 1" viewBox="0 0 4174 972">
  <defs>
    <style>.cls-1{fill:#fff;}</style>
  </defs>
  <polygon class="cls-1" points="423.87 58.54 312.53 390.53 202.19 58.54 113.91 58.54 31.5 534.52 119.84 534.52 172.09 233.92 272.32 534.52 352.17 534.52 453.29 233.92 504.32 534.52 591.94 534.52 512.09 58.54 423.87 58.54"></polygon>
  <path class="cls-1" d="M888.82,46.57A244.06,244.06,0,0,0,764.33,80.06q-57.8,33.48-90.83,90.76t-33,125.55q0,101.92,70.91,176t178.08,74.1q102.31,0,174-72.16T1135.23,298q0-105.17-72.69-178.29T888.82,46.57ZM999.28,412.21q-45.36,46.6-109.81,46.6-57,0-101.06-35.92Q731.73,376.95,731.73,298q0-70.86,45-116.81t111.1-46q65.43,0,111.1,47.08t45.68,115Q1044.63,365.62,999.28,412.21Z"></path>
  <path class="cls-1" d="M1486.8,322.51Q1509.29,291,1509.29,244q0-44.65-20.37-77.33T1435.11,120q-33.46-14.07-112.32-14.08h-96v476h90.6V380.27h8.3l107,201.59h99L1419,370.24Q1464.31,354.05,1486.8,322.51Zm-81.49-41.94q-16.29,11.37-59.52,11.36H1317.4V194.21h24.84q36.13,0,49.68,5a44.67,44.67,0,0,1,21.61,16.56q8.07,11.52,8.07,27.1Q1421.6,269.21,1405.31,280.57Z"></path>
  <polygon class="cls-1" points="1734.5 426.76 1734.5 147.85 1821.22 147.85 1821.22 58.54 1558.15 58.54 1558.15 147.85 1642.6 147.85 1642.6 511.99 1734.5 426.76"></polygon>
  <path class="cls-1" d="M1860.06,310.34q2.93,59.55,31,109.24a265.15,265.15,0,0,0,39.58,52.82A242.88,242.88,0,0,0,1982,513.59m0,0q55.32,32.91,126.74,32.91,102.32,0,174-72.16T2354.48,298q0-105.17-72.69-178.29T2108.07,46.57a244.06,244.06,0,0,0-124.49,33.49q-57.81,33.48-90.83,90.76t-33,125.55q0,7,.34,14m122.52-113.61A159,159,0,0,1,1996,181.18q45-45.94,111.1-46,65.43,0,111.1,47.08t45.68,115q0,68.28-45.36,114.87t-109.8,46.6q-57,0-101.06-35.92-34.11-27.64-47.69-67.24-9-26.22-9-57.66,0-59.39,31.61-101.26"></path>
  <polygon class="cls-1" points="2597.65 534.52 2683.72 226.8 2771.41 534.52 2858.32 534.52 2965.56 58.54 2876.43 58.54 2808.3 362.38 2722.06 58.54 2646.72 58.54 2561.73 362.38 2492.96 58.54 2403.82 58.54 2511.58 534.52 2597.65 534.52"></polygon>
  <path class="cls-1" d="M3189.61,446.83q-15.87,13.59-39.21,13.59-44.73,0-79.07-63.09l-76.16,45.95q26.88,53.39,64.62,78.3t88.59,24.92q65.11,0,105.6-38.19t40.5-96.75q0-30.09-11.51-55.49t-39.06-53.23q-11-11.32-62.88-54.68-55.43-46.92-66.45-61.16-8.1-10.68-8.1-22.65t11.34-21.52q11.34-9.54,29.18-9.54,36.63,0,72,49.18l67.1-59.21q-37.57-43.7-69.82-60.19a146.94,146.94,0,0,0-67.86-16.5q-55.41,0-93.15,35.43a128.06,128.06,0,0,0-20.4,24.3l-.36.56a109.67,109.67,0,0,0-16.94,56.86c0,1.07,0,2.14,0,3.22q0,34.31,22.69,68.76t100.49,97.88q40.83,33.33,52.83,49.51t12,32.36Q3205.49,433.24,3189.61,446.83Z"></path>
  <polygon class="cls-1" points="3473.09 323.04 3619.83 534.52 3727.26 534.52 3544.88 270.97 3711.1 58.54 3602.31 58.54 3473.09 222.63 3473.09 58.54 3381.52 58.54 3381.52 534.52 3473.09 534.52 3473.09 323.04"></polygon>
  <path class="cls-1" d="M4032.46,58.54l-88.39,171.22-88.8-171.22H3758l34.78,67.06L3898,328.4q.84,134.52,1.66,269l.3,48.09H1647.22l-94.67,87.9H3987.82q0-43.9,0-87.9.15-159.18,1.38-317.13L4128.5,58.54Z"></path>
  <path class="cls-1" d="M1536,869.3l-7.79,7.38a59.67,59.67,0,0,0-18.43-12.55,49.66,49.66,0,0,0-19.51-4.27,46.57,46.57,0,0,0-22.53,5.81,42.26,42.26,0,0,0-16.58,15.76,40.66,40.66,0,0,0-5.87,21,41.46,41.46,0,0,0,6.08,21.57,43.19,43.19,0,0,0,16.82,16.06,48.31,48.31,0,0,0,23.51,5.85q15.52,0,26.25-8.75a34.57,34.57,0,0,0,12.72-22.7h-32.06v-9.71h43.34q-.15,23.33-13.85,37t-36.67,13.71q-27.9,0-44.16-19a50.5,50.5,0,0,1-12.51-33.83,51.86,51.86,0,0,1,7.18-26.6,51,51,0,0,1,19.68-19.24,57.43,57.43,0,0,1,28.3-6.94,62.87,62.87,0,0,1,24.07,4.62Q1525.22,859.11,1536,869.3Z"></path>
  <path class="cls-1" d="M1673.58,852.41h20q16.76,0,22.7,1.37a25.89,25.89,0,0,1,14.56,8.8q5.6,6.74,5.6,16.59a26.83,26.83,0,0,1-3.86,14.45,24,24,0,0,1-11,9.41q-7.17,3.18-19.82,3.25L1737.91,953h-12.43l-36.17-46.69h-5.68V953h-10.05Zm10.05,9.84v34.18l17.33.14q10.07,0,14.89-1.91a15.56,15.56,0,0,0,7.53-6.12,17,17,0,0,0,2.7-9.4,16.24,16.24,0,0,0-2.74-9.19,15.27,15.27,0,0,0-7.18-5.92q-4.46-1.77-14.79-1.78Z"></path>
  <path class="cls-1" d="M1911.09,852.41,1958,953h-10.86l-15.81-33.09H1888L1872.33,953h-11.21l47.51-100.56Zm-1.27,21.37-17.23,36.39H1927Z"></path>
  <path class="cls-1" d="M2085.5,852.41h20q17.23,0,23.25,1.51a25.77,25.77,0,0,1,14.08,8.71q5.46,6.6,5.47,16.58T2143,895.79a26.2,26.2,0,0,1-14.69,8.78q-6.84,1.63-25.57,1.64h-7.18V953H2085.5Zm10.05,9.84v34.12l17,.2q10.33,0,15.11-1.87a15.47,15.47,0,0,0,7.52-6.08,16.81,16.81,0,0,0,2.74-9.38,16.62,16.62,0,0,0-2.74-9.24,15.07,15.07,0,0,0-7.21-6q-4.48-1.77-14.66-1.78Z"></path>
  <path class="cls-1" d="M2280.29,852.41h10.05v42.18h51.2V852.41h10.05V953h-10.05V904.43h-51.2V953h-10.05Z"></path>
  <path class="cls-1" d="M2486.62,852.41h10.05V953h-10.05Z"></path>
  <path class="cls-1" d="M2725.36,871.07l-7.93,6.09a43.31,43.31,0,0,0-15.76-13,46.09,46.09,0,0,0-20.2-4.41,44.65,44.65,0,0,0-22.28,5.78,41.38,41.38,0,0,0-15.89,15.52,42.92,42.92,0,0,0-5.64,21.91q0,18.39,12.61,30.69T2682.09,946q21.12,0,35.34-16.55l7.93,6a50.73,50.73,0,0,1-18.76,14.8,59,59,0,0,1-25.13,5.23q-26.38,0-41.63-17.57-12.78-14.83-12.78-35.82,0-22.08,15.48-37.15t38.8-15.08a57,57,0,0,1,25.43,5.57A49.43,49.43,0,0,1,2725.36,871.07Z"></path>
</svg>
